<svg width="43" height="43" viewBox="0 0 43 43" fill="none" xmlns="http://www.w3.org/2000/svg">
<path d="M35.0476 42.5346H7.95244C3.74457 42.5346 0.333435 39.1234 0.333435 34.9156V7.99083C0.333435 3.78297 3.74457 0.371826 7.95244 0.371826H35.0476C39.2555 0.371826 42.6666 3.78297 42.6666 7.99083V34.9156C42.6666 39.1232 39.2555 42.5346 35.0476 42.5346Z" fill="#F6A7D2"/>
<path d="M35.0476 0.371582H24.8889C29.0967 0.371582 32.5079 3.78272 32.5079 7.99059V34.9153C32.5079 39.1232 29.0967 42.5343 24.8889 42.5343H35.0476C39.2555 42.5343 42.6666 39.1232 42.6666 34.9153V7.99084C42.6666 3.78272 39.2555 0.371582 35.0476 0.371582Z" fill="#F28CC4"/>
<path d="M26.3379 24.2024C23.1897 24.2024 20.6375 21.6503 20.6375 18.5021C20.6162 16.2233 22.1114 14.1193 24.1997 13.2385C24.8653 12.9577 24.7777 11.9901 24.0797 11.8033C23.1115 11.5448 22.1099 11.4335 21.1086 11.4732C16.0497 11.6674 11.8755 15.7113 11.536 20.7625C11.144 26.5909 15.7557 31.4402 21.5 31.4402C26.1449 31.4563 30.2605 28.0772 31.2597 23.6019C31.4199 22.8846 30.5822 22.3776 30.0214 22.8526C28.993 23.726 27.6871 24.2045 26.3379 24.2024Z" fill="#8AC9FE"/>
</svg>
