<svg width="80" height="80" viewBox="0 0 80 80" fill="none" xmlns="http://www.w3.org/2000/svg">
<g clip-path="url(#clip0_6_170)">
<path d="M48.5339 53.2692H31.4661C28.8155 53.2692 26.6667 51.1205 26.6667 48.4698V31.5094C26.6667 28.8587 28.8155 26.71 31.4661 26.71H48.5339C51.1846 26.71 53.3333 28.8587 53.3333 31.5094V48.4698C53.3333 51.1203 51.1846 53.2692 48.5339 53.2692Z" fill="#BBEC6C"/>
<path d="M48.5339 26.7098H42.1346C44.7853 26.7098 46.934 28.8586 46.934 31.5092V48.4697C46.934 51.1203 44.7853 53.2691 42.1346 53.2691H48.5339C51.1845 53.2691 53.3332 51.1203 53.3332 48.4697V31.5094C53.3332 28.8586 51.1845 26.7098 48.5339 26.7098Z" fill="#A2E62E"/>
<path d="M21.8672 53.2692H4.79938C2.14875 53.2692 0 51.1203 0 48.4697V31.5094C0 28.8588 2.14875 26.71 4.79938 26.71H21.8672C24.5178 26.71 26.6666 28.8588 26.6666 31.5094V48.4699C26.6667 51.1203 24.5178 53.2692 21.8672 53.2692Z" fill="#EFEDEF"/>
<path d="M21.8672 26.7098H15.468C18.1186 26.7098 20.2674 28.8586 20.2674 31.5092V48.4697C20.2674 51.1203 18.1186 53.2691 15.468 53.2691H21.8672C24.5179 53.2691 26.6666 51.1203 26.6666 48.4697V31.5094C26.6668 28.8586 24.5179 26.7098 21.8672 26.7098Z" fill="#E5E1E5"/>
<path d="M18.613 34.7473V45.232H8.05359V34.7473H18.613ZM34.7203 45.2319L40 34.7472L45.2797 45.2319H34.7203Z" fill="#F6A7D2"/>
<path d="M21.8672 79.745H4.79938C2.14875 79.745 0 77.5963 0 74.9455V57.9852C0 55.3346 2.14875 53.1858 4.79938 53.1858H21.8672C24.5178 53.1858 26.6666 55.3346 26.6666 57.9852V74.9457C26.6667 77.5963 24.5178 79.745 21.8672 79.745Z" fill="#8AC9FE"/>
<path d="M21.8672 53.1856H15.468C18.1186 53.1856 20.2674 55.3344 20.2674 57.985V74.9455C20.2674 77.5961 18.1186 79.7449 15.468 79.7449H21.8672C24.5179 79.7449 26.6666 77.5961 26.6666 74.9455V57.9852C26.6668 55.3344 24.5179 53.1856 21.8672 53.1856Z" fill="#60B7FF"/>
<path d="M13.3333 60.3499L15.3277 64.3761L19.7872 65.0217L16.5603 68.1556L17.3221 72.5808L13.3333 70.4916L9.34455 72.5808L10.1064 68.1556L6.87939 65.0217L11.3389 64.3761L13.3333 60.3499Z" fill="#EFEDEF"/>
<path d="M45.5099 79.745H48.5339C51.1846 79.745 53.3333 77.5963 53.3333 74.9456V58.027C53.3333 55.3764 51.1846 53.2277 48.5339 53.2277H31.4661C28.8155 53.2277 26.6667 55.3764 26.6667 58.027V74.9455C26.6667 77.5961 28.8155 79.7448 31.4661 79.7448H45.5099V79.745Z" fill="#FEA95C"/>
<path d="M48.534 53.2277H42.1348C44.7854 53.2277 46.9341 55.3764 46.9341 58.027V74.9455C46.9341 77.5961 44.7854 79.7448 42.1348 79.7448H48.534C51.1846 79.7448 53.3334 77.5961 53.3334 74.9455V58.027C53.3334 55.3764 51.1846 53.2277 48.534 53.2277Z" fill="#FE9738"/>
<path d="M40 72.7775C43.4746 72.7775 46.2912 69.9608 46.2912 66.4863C46.2912 63.0117 43.4746 60.195 40 60.195C36.5254 60.195 33.7087 63.0117 33.7087 66.4863C33.7087 69.9608 36.5254 72.7775 40 72.7775Z" fill="#FEE45A"/>
<path d="M48.5339 26.7935H31.4661C28.8155 26.7935 26.6667 24.6447 26.6667 21.9941V5.03363C26.6667 2.383 28.8155 0.234253 31.4661 0.234253H48.5339C51.1846 0.234253 53.3333 2.383 53.3333 5.03363V21.9941C53.3333 24.6446 51.1846 26.7935 48.5339 26.7935Z" fill="#F6A7D2"/>
<path d="M48.534 0.23407H42.1348C44.7854 0.23407 46.9341 2.38282 46.9341 5.03345V21.9939C46.9341 24.6445 44.7854 26.7933 42.1348 26.7933H48.534C51.1846 26.7933 53.3334 24.6445 53.3334 21.9939V5.0336C53.3334 2.38282 51.1846 0.23407 48.534 0.23407Z" fill="#F28CC4"/>
<path d="M43.0476 15.2456C41.0645 15.2456 39.4568 13.638 39.4568 11.6548C39.4434 10.2194 40.3852 8.89406 41.7007 8.33922C42.1199 8.16234 42.0648 7.55281 41.6251 7.43516C41.0152 7.27231 40.3843 7.20221 39.7535 7.22719C36.5668 7.34953 33.9374 9.89687 33.7235 13.0787C33.4766 16.7502 36.3816 19.8048 40.0001 19.8048C42.926 19.815 45.5185 17.6864 46.1479 14.8673C46.2488 14.4155 45.7212 14.0961 45.3679 14.3953C44.7201 14.9455 43.8975 15.2469 43.0476 15.2456Z" fill="#8AC9FE"/>
<path d="M75.2007 79.766H58.1329C55.4822 79.766 53.3335 77.6172 53.3335 74.9666V58.0061C53.3335 55.3555 55.4822 53.2068 58.1329 53.2068H75.2007C77.8513 53.2068 80.0001 55.3555 80.0001 58.0061V74.9666C80.0001 77.6172 77.8513 79.766 75.2007 79.766Z" fill="#FEE45A"/>
<path d="M75.2007 53.2066H68.8015C71.4521 53.2066 73.6009 55.3553 73.6009 58.0059V74.9664C73.6009 77.617 71.4521 79.7658 68.8015 79.7658H75.2007C77.8514 79.7658 80.0001 77.617 80.0001 74.9664V58.0061C80.0001 55.3555 77.8514 53.2066 75.2007 53.2066Z" fill="#FEDF30"/>
<path d="M73.0259 66.5088L66.7076 72.827L60.344 66.4636L66.6624 60.1452L73.0259 66.5088Z" fill="white"/>
</g>
<defs>
<clipPath id="clip0_6_170">
<rect width="80" height="80" fill="white"/>
</clipPath>
</defs>
</svg>
