<svg width="255" height="191" viewBox="0 0 255 191" fill="none" xmlns="http://www.w3.org/2000/svg">
<path d="M145 158.999C187.526 158.999 222 124.525 222 81.9993C222 39.4738 187.526 5 145 5C102.475 5 68.001 39.4738 68.001 81.9993C68.001 124.525 102.475 158.999 145 158.999Z" fill="#8BD399"/>
<path opacity="0.1" d="M204.121 32.7098C190.803 21.7533 173.763 15.1677 155.188 15.1677C112.663 15.1677 78.17 49.6603 78.17 92.1854C78.17 110.761 84.7556 127.8 95.7115 141.119C78.7898 127.003 68.0112 105.77 68.0112 81.9972C68.0112 39.4715 102.474 5.00897 144.999 5.00897C168.772 5.00897 190.005 15.7876 204.121 32.7098Z" fill="black"/>
<path d="M126.68 112.141L109.653 94.0261C105.194 89.2811 105.424 81.8206 110.167 77.3613C114.911 72.8964 122.375 73.136 126.83 77.8777L134.958 86.5217L169.508 47.0328C173.79 42.1321 181.239 41.6352 186.144 45.9238C191.045 50.2125 191.539 57.6591 187.253 62.5598L144.141 111.83C139.549 117.074 131.443 117.211 126.68 112.141Z" fill="white"/>
<circle cx="12" cy="12" r="12" fill="#8BD399"/>
<circle cx="40" cy="104" r="8" fill="#7DBE8A"/>
<circle cx="229" cy="157" r="5" fill="#7DBE8A"/>
<circle cx="243.5" cy="19.5" r="11.5" fill="#7DBE8A"/>
</svg>