<svg width="85" height="43" viewBox="0 0 85 43" fill="none" xmlns="http://www.w3.org/2000/svg">
<path d="M77.0476 42.5649H49.9524C45.7446 42.5649 42.3334 39.1538 42.3334 34.9459V8.02114C42.3334 3.81327 45.7446 0.40213 49.9524 0.40213H77.0476C81.2555 0.40213 84.6666 3.81327 84.6666 8.02114V34.9459C84.6666 39.1535 81.2555 42.5649 77.0476 42.5649Z" fill="#BBEC6C"/>
<path d="M77.0476 0.401871H66.8888C71.0967 0.401871 74.5078 3.81301 74.5078 8.02088V34.9456C74.5078 39.1535 71.0967 42.5646 66.8888 42.5646H77.0476C81.2554 42.5646 84.6666 39.1535 84.6666 34.9456V8.02113C84.6666 3.81301 81.2554 0.401871 77.0476 0.401871Z" fill="#A2E62E"/>
<path d="M34.7142 42.5649H7.61901C3.41114 42.5649 0 39.1535 0 34.9456V8.02114C0 3.81327 3.41114 0.40213 7.61901 0.40213H34.7142C38.922 0.40213 42.3332 3.81327 42.3332 8.02114V34.9459C42.3334 39.1535 38.922 42.5649 34.7142 42.5649Z" fill="#EFEDEF"/>
<path d="M34.7142 0.401871H24.5554C28.7633 0.401871 32.1744 3.81301 32.1744 8.02088V34.9456C32.1744 39.1535 28.7633 42.5646 24.5554 42.5646H34.7142C38.922 42.5646 42.3332 39.1535 42.3332 34.9456V8.02113C42.3334 3.81301 38.922 0.401871 34.7142 0.401871Z" fill="#E5E1E5"/>
<path d="M29.5481 13.1614V29.8058H12.7851V13.1614H29.5481ZM55.1185 29.8056L63.5 13.1612L71.8815 29.8056H55.1185Z" fill="#F6A7D2"/>
</svg>
