<svg width="69" height="77" viewBox="0 0 69 77" fill="none" xmlns="http://www.w3.org/2000/svg">
<g opacity="0.4">
<path d="M30.4741 14.8863L24.9828 23.2435L16.2116 17.4802L21.7029 9.12299L30.4741 14.8863ZM38.3625 32.0348L48.2394 26.5593L47.1337 37.7982L38.3625 32.0348Z" fill="#F6A7D2"/>
<path d="M12.0219 33.8722L11.5314 38.2765L14.9371 41.2723L10.5326 42.0573L8.78959 46.107L6.55786 42.1879L2.07492 41.6949L5.10033 38.4879L4.0726 34.1335L8.17403 36.0705L12.0219 33.8722Z" fill="#EFEDEF"/>
<path d="M27.5791 58.4531C30.3485 60.2728 34.1916 59.3158 36.1629 56.3157C38.1343 53.3155 37.4873 49.4083 34.7179 47.5886C31.9486 45.7689 28.1055 46.7259 26.1342 49.726C24.1628 52.7262 24.8098 56.6334 27.5791 58.4531Z" fill="#FEE45A"/>
<path d="M61.7773 11.87C60.1801 10.8205 59.7974 8.58159 60.9225 6.86925C61.7261 5.62268 63.2366 4.9768 64.6109 5.19389C65.0489 5.26302 65.3503 4.70753 65.0629 4.37325C64.6641 3.90988 64.1957 3.51545 63.6735 3.20321C61.0375 1.62237 57.4745 2.43036 55.497 5.06456C53.2151 8.104 53.8218 12.279 56.7361 14.1939C59.087 15.7512 62.3827 15.2852 64.489 13.1842C64.8267 12.8474 64.5829 12.2924 64.1286 12.3638C63.2947 12.496 62.4611 12.321 61.7773 11.87Z" fill="#8AC9FE"/>
<path d="M58.7149 71.1618L49.7454 73.018L47.8758 63.9843L56.8455 62.1281L58.7149 71.1618Z" fill="white"/>
</g>
</svg>
