<svg width="127" height="43" viewBox="0 0 127 43" fill="none" xmlns="http://www.w3.org/2000/svg">
<path d="M34.7142 42.5952H7.61901C3.41114 42.5952 0 39.1841 0 34.9759V8.05145C0 3.84358 3.41114 0.432442 7.61901 0.432442H34.7142C38.922 0.432442 42.3332 3.84358 42.3332 8.05145V34.9762C42.3334 39.1841 38.922 42.5952 34.7142 42.5952Z" fill="#8AC9FE"/>
<path d="M34.7142 0.43219H24.5554C28.7633 0.43219 32.1744 3.84333 32.1744 8.0512V34.9759C32.1744 39.1838 28.7633 42.595 24.5554 42.595H34.7142C38.922 42.595 42.3332 39.1838 42.3332 34.9759V8.05145C42.3334 3.84333 38.922 0.43219 34.7142 0.43219Z" fill="#60B7FF"/>
<path d="M21.1666 11.8054L24.3327 18.1971L31.4122 19.222L26.2895 24.1971L27.4987 31.222L21.1666 27.9054L14.8345 31.222L16.0439 24.1971L10.921 19.222L18.0005 18.1971L21.1666 11.8054Z" fill="#EFEDEF"/>
<path d="M72.2469 42.5952H77.0476C81.2555 42.5952 84.6666 39.1841 84.6666 34.9762V8.11792C84.6666 3.91005 81.2555 0.498917 77.0476 0.498917H49.9524C45.7446 0.498917 42.3334 3.91005 42.3334 8.11792V34.9759C42.3334 39.1838 45.7446 42.5949 49.9524 42.5949H72.2469V42.5952Z" fill="#FEA95C"/>
<path d="M77.0476 0.498917H66.8889C71.0967 0.498917 74.5079 3.91005 74.5079 8.11792V34.9759C74.5079 39.1838 71.0967 42.5949 66.8889 42.5949H77.0476C81.2555 42.5949 84.6666 39.1838 84.6666 34.9759V8.11792C84.6666 3.91005 81.2555 0.498917 77.0476 0.498917Z" fill="#FE9738"/>
<path d="M63.5 31.5343C69.0159 31.5343 73.4874 27.0628 73.4874 21.5469C73.4874 16.0311 69.0159 11.5596 63.5 11.5596C57.9841 11.5596 53.5126 16.0311 53.5126 21.5469C53.5126 27.0628 57.9841 31.5343 63.5 31.5343Z" fill="#FEE45A"/>
<path d="M119.381 42.6284H92.2859C88.078 42.6284 84.6669 39.2173 84.6669 35.0094V8.08468C84.6669 3.87682 88.078 0.465675 92.2859 0.465675H119.381C123.589 0.465675 127 3.87682 127 8.08468V35.0094C127 39.2173 123.589 42.6284 119.381 42.6284Z" fill="#FEE45A"/>
<path d="M119.381 0.465424H109.222C113.43 0.465424 116.841 3.87656 116.841 8.08443V35.0092C116.841 39.217 113.43 42.6282 109.222 42.6282H119.381C123.589 42.6282 127 39.217 127 35.0092V8.08468C127 3.87681 123.589 0.465424 119.381 0.465424Z" fill="#FEDF30"/>
<path d="M115.928 21.5826L105.898 31.6129L95.796 21.511L105.827 11.4804L115.928 21.5826Z" fill="white"/>
</svg>